<svg xmlns="http://www.w3.org/2000/svg" xmlns:xlink="http://www.w3.org/1999/xlink" width="500" zoomAndPan="magnify" viewBox="0 0 375 374.999991" height="500" preserveAspectRatio="xMidYMid meet" version="1.0"><path fill="#ffffff" d="M 285.050781 97.507812 C 285.050781 99.105469 285.011719 100.699219 284.933594 102.292969 C 284.855469 103.890625 284.738281 105.480469 284.582031 107.066406 C 284.425781 108.65625 284.230469 110.238281 283.996094 111.820312 C 283.761719 113.398438 283.488281 114.96875 283.175781 116.535156 C 282.867188 118.101562 282.515625 119.65625 282.128906 121.207031 C 281.738281 122.753906 281.316406 124.289062 280.851562 125.816406 C 280.386719 127.34375 279.886719 128.859375 279.351562 130.363281 C 278.8125 131.867188 278.238281 133.355469 277.628906 134.828125 C 277.015625 136.304688 276.371094 137.761719 275.6875 139.203125 C 275.003906 140.648438 274.289062 142.074219 273.535156 143.480469 C 272.78125 144.886719 271.996094 146.277344 271.175781 147.644531 C 270.355469 149.015625 269.503906 150.363281 268.617188 151.6875 C 267.730469 153.015625 266.808594 154.320312 265.859375 155.601562 C 264.910156 156.882812 263.925781 158.140625 262.914062 159.375 C 261.902344 160.609375 260.859375 161.816406 259.789062 163 C 258.714844 164.183594 257.617188 165.339844 256.488281 166.46875 C 255.359375 167.59375 254.203125 168.695312 253.019531 169.765625 C 251.839844 170.839844 250.628906 171.882812 249.394531 172.894531 C 248.164062 173.90625 246.90625 174.886719 245.621094 175.839844 C 244.339844 176.789062 243.035156 177.707031 241.710938 178.59375 C 240.382812 179.480469 239.035156 180.335938 237.664062 181.15625 C 236.296875 181.976562 234.910156 182.761719 233.5 183.515625 C 232.09375 184.265625 230.667969 184.984375 229.226562 185.667969 C 227.78125 186.347656 226.324219 186.996094 224.847656 187.605469 C 223.375 188.21875 221.886719 188.792969 220.382812 189.328125 C 218.882812 189.867188 217.367188 190.367188 215.839844 190.832031 C 214.3125 191.292969 212.773438 191.71875 211.226562 192.109375 C 209.675781 192.496094 208.121094 192.84375 206.554688 193.15625 C 204.988281 193.46875 203.417969 193.742188 201.839844 193.976562 C 200.261719 194.207031 198.675781 194.402344 197.089844 194.5625 C 195.5 194.71875 193.910156 194.835938 192.316406 194.914062 C 190.722656 194.992188 189.125 195.03125 187.53125 195.03125 C 185.933594 195.03125 184.339844 194.992188 182.746094 194.914062 C 181.152344 194.835938 179.558594 194.71875 177.972656 194.5625 C 176.382812 194.402344 174.800781 194.207031 173.222656 193.976562 C 171.640625 193.742188 170.070312 193.46875 168.503906 193.15625 C 166.9375 192.84375 165.382812 192.496094 163.835938 192.109375 C 162.285156 191.71875 160.75 191.292969 159.222656 190.832031 C 157.695312 190.367188 156.179688 189.867188 154.675781 189.328125 C 153.171875 188.792969 151.683594 188.21875 150.210938 187.605469 C 148.734375 186.996094 147.277344 186.347656 145.835938 185.667969 C 144.390625 184.984375 142.964844 184.265625 141.558594 183.515625 C 140.152344 182.761719 138.761719 181.976562 137.394531 181.15625 C 136.027344 180.335938 134.675781 179.480469 133.351562 178.59375 C 132.023438 177.707031 130.71875 176.789062 129.4375 175.839844 C 128.15625 174.886719 126.898438 173.90625 125.664062 172.894531 C 124.429688 171.882812 123.222656 170.839844 122.039062 169.765625 C 120.855469 168.695312 119.699219 167.59375 118.574219 166.46875 C 117.445312 165.339844 116.34375 164.183594 115.273438 163 C 114.199219 161.816406 113.15625 160.609375 112.144531 159.375 C 111.132812 158.140625 110.152344 156.882812 109.199219 155.601562 C 108.25 154.320312 107.332031 153.015625 106.445312 151.6875 C 105.558594 150.363281 104.703125 149.015625 103.882812 147.644531 C 103.0625 146.277344 102.277344 144.886719 101.523438 143.480469 C 100.773438 142.074219 100.054688 140.648438 99.371094 139.203125 C 98.691406 137.761719 98.042969 136.304688 97.433594 134.828125 C 96.820312 133.355469 96.246094 131.867188 95.710938 130.363281 C 95.171875 128.859375 94.671875 127.34375 94.207031 125.816406 C 93.746094 124.289062 93.320312 122.753906 92.933594 121.207031 C 92.542969 119.65625 92.195312 118.101562 91.882812 116.535156 C 91.570312 114.96875 91.300781 113.398438 91.066406 111.820312 C 90.832031 110.238281 90.636719 108.65625 90.480469 107.066406 C 90.324219 105.480469 90.207031 103.890625 90.128906 102.292969 C 90.046875 100.699219 90.007812 99.105469 90.007812 97.507812 C 90.007812 95.914062 90.046875 94.320312 90.128906 92.722656 C 90.207031 91.128906 90.324219 89.539062 90.480469 87.949219 C 90.636719 86.363281 90.832031 84.777344 91.066406 83.199219 C 91.300781 81.621094 91.570312 80.050781 91.882812 78.484375 C 92.195312 76.917969 92.542969 75.363281 92.933594 73.8125 C 93.320312 72.265625 93.746094 70.726562 94.207031 69.199219 C 94.671875 67.671875 95.171875 66.160156 95.710938 64.65625 C 96.246094 63.152344 96.820312 61.664062 97.433594 60.191406 C 98.042969 58.714844 98.691406 57.257812 99.371094 55.8125 C 100.054688 54.371094 100.773438 52.945312 101.523438 51.539062 C 102.277344 50.132812 103.0625 48.742188 103.882812 47.375 C 104.703125 46.003906 105.558594 44.65625 106.445312 43.328125 C 107.332031 42.003906 108.25 40.699219 109.199219 39.417969 C 110.152344 38.132812 111.132812 36.875 112.144531 35.644531 C 113.15625 34.410156 114.199219 33.203125 115.273438 32.019531 C 116.34375 30.835938 117.445312 29.679688 118.574219 28.550781 C 119.699219 27.421875 120.855469 26.324219 122.039062 25.25 C 123.222656 24.179688 124.429688 23.136719 125.664062 22.125 C 126.898438 21.113281 128.15625 20.132812 129.4375 19.179688 C 130.71875 18.230469 132.023438 17.3125 133.351562 16.425781 C 134.675781 15.539062 136.027344 14.683594 137.394531 13.863281 C 138.761719 13.042969 140.152344 12.257812 141.558594 11.503906 C 142.964844 10.75 144.390625 10.035156 145.835938 9.351562 C 147.277344 8.667969 148.734375 8.023438 150.210938 7.414062 C 151.683594 6.800781 153.171875 6.226562 154.675781 5.691406 C 156.179688 5.152344 157.695312 4.652344 159.222656 4.1875 C 160.75 3.726562 162.285156 3.300781 163.835938 2.910156 C 165.382812 2.523438 166.9375 2.175781 168.503906 1.863281 C 170.070312 1.550781 171.640625 1.277344 173.222656 1.042969 C 174.800781 0.808594 176.382812 0.613281 177.972656 0.457031 C 179.558594 0.300781 181.152344 0.183594 182.746094 0.105469 C 184.339844 0.0273438 185.933594 -0.0117188 187.53125 -0.0117188 C 189.125 -0.0117188 190.722656 0.0273438 192.316406 0.105469 C 193.910156 0.183594 195.5 0.300781 197.089844 0.457031 C 198.675781 0.613281 200.261719 0.808594 201.839844 1.042969 C 203.417969 1.277344 204.988281 1.550781 206.554688 1.863281 C 208.121094 2.175781 209.675781 2.523438 211.226562 2.910156 C 212.773438 3.300781 214.3125 3.726562 215.839844 4.1875 C 217.367188 4.652344 218.882812 5.152344 220.382812 5.691406 C 221.886719 6.226562 223.375 6.800781 224.847656 7.414062 C 226.324219 8.023438 227.78125 8.667969 229.226562 9.351562 C 230.667969 10.035156 232.09375 10.75 233.5 11.503906 C 234.910156 12.257812 236.296875 13.042969 237.664062 13.863281 C 239.035156 14.683594 240.382812 15.539062 241.710938 16.425781 C 243.035156 17.3125 244.339844 18.230469 245.621094 19.179688 C 246.90625 20.132812 248.164062 21.113281 249.394531 22.125 C 250.628906 23.136719 251.839844 24.179688 253.019531 25.25 C 254.203125 26.324219 255.359375 27.421875 256.488281 28.550781 C 257.617188 29.679688 258.714844 30.835938 259.789062 32.019531 C 260.859375 33.203125 261.902344 34.410156 262.914062 35.644531 C 263.925781 36.875 264.910156 38.132812 265.859375 39.417969 C 266.808594 40.699219 267.730469 42.003906 268.617188 43.328125 C 269.503906 44.65625 270.355469 46.003906 271.175781 47.375 C 271.996094 48.742188 272.78125 50.132812 273.535156 51.539062 C 274.289062 52.945312 275.003906 54.371094 275.6875 55.8125 C 276.371094 57.257812 277.015625 58.714844 277.628906 60.191406 C 278.238281 61.664062 278.8125 63.152344 279.351562 64.65625 C 279.886719 66.160156 280.386719 67.671875 280.851562 69.199219 C 281.316406 70.726562 281.738281 72.265625 282.128906 73.8125 C 282.515625 75.363281 282.867188 76.917969 283.175781 78.484375 C 283.488281 80.050781 283.761719 81.621094 283.996094 83.199219 C 284.230469 84.777344 284.425781 86.363281 284.582031 87.949219 C 284.738281 89.539062 284.855469 91.128906 284.933594 92.722656 C 285.011719 94.320312 285.050781 95.914062 285.050781 97.507812 Z M 285.050781 97.507812 " fill-opacity="1" fill-rule="nonzero"/><path fill="#ffffff" d="M 187.53125 201.785156 C 183.722656 201.785156 179.921875 201.910156 176.125 202.160156 C 172.324219 202.410156 168.539062 202.789062 164.765625 203.289062 C 160.992188 203.789062 157.242188 204.414062 153.507812 205.164062 C 149.777344 205.910156 146.074219 206.78125 142.398438 207.777344 C 138.726562 208.769531 135.085938 209.882812 131.488281 211.117188 C 127.886719 212.347656 124.328125 213.699219 120.816406 215.167969 C 117.304688 216.636719 113.847656 218.21875 110.441406 219.914062 C 107.03125 221.613281 103.683594 223.417969 100.398438 225.335938 C 97.109375 227.253906 93.886719 229.277344 90.734375 231.410156 C 87.578125 233.539062 84.5 235.769531 81.492188 238.105469 C 78.484375 240.4375 75.558594 242.867188 72.710938 245.394531 C 69.863281 247.921875 67.105469 250.539062 64.429688 253.25 C 61.757812 255.957031 59.175781 258.753906 56.6875 261.632812 C 54.199219 264.511719 51.804688 267.46875 49.511719 270.507812 C 47.21875 273.542969 45.027344 276.65625 42.9375 279.835938 C 40.851562 283.019531 38.867188 286.265625 36.996094 289.578125 C 36.382812 290.660156 35.808594 291.761719 35.269531 292.878906 C 34.730469 294 34.230469 295.136719 33.765625 296.285156 C 33.300781 297.4375 32.875 298.605469 32.484375 299.785156 C 32.097656 300.964844 31.746094 302.15625 31.4375 303.355469 C 31.125 304.558594 30.855469 305.769531 30.621094 306.992188 C 30.390625 308.210938 30.199219 309.4375 30.046875 310.667969 C 29.894531 311.902344 29.78125 313.136719 29.710938 314.378906 C 29.636719 315.617188 29.605469 316.859375 29.617188 318.101562 C 29.625 319.34375 29.675781 320.582031 29.765625 321.820312 C 29.855469 323.0625 29.984375 324.296875 30.15625 325.527344 C 30.328125 326.753906 30.539062 327.980469 30.789062 329.195312 C 31.039062 330.410156 31.328125 331.617188 31.65625 332.816406 C 31.984375 334.015625 32.355469 335.199219 32.761719 336.375 C 33.167969 337.546875 33.609375 338.707031 34.09375 339.851562 C 34.574219 340.996094 35.09375 342.125 35.648438 343.234375 C 36.203125 344.34375 36.792969 345.4375 37.421875 346.507812 C 38.046875 347.582031 38.707031 348.632812 39.402344 349.664062 C 40.097656 350.691406 40.824219 351.695312 41.585938 352.679688 C 42.347656 353.660156 43.136719 354.617188 43.960938 355.546875 C 44.78125 356.476562 45.636719 357.378906 46.515625 358.253906 C 47.398438 359.128906 48.308594 359.976562 49.246094 360.789062 C 50.179688 361.605469 51.144531 362.390625 52.132812 363.144531 C 53.117188 363.894531 54.128906 364.617188 55.164062 365.300781 C 56.199219 365.988281 57.257812 366.640625 58.332031 367.261719 C 59.410156 367.878906 60.507812 368.460938 61.621094 369.007812 C 62.738281 369.554688 63.867188 370.0625 65.015625 370.535156 C 66.164062 371.007812 67.328125 371.445312 68.503906 371.839844 C 69.683594 372.238281 70.871094 372.597656 72.070312 372.917969 C 73.269531 373.234375 74.480469 373.515625 75.699219 373.757812 C 76.917969 373.996094 78.140625 374.199219 79.375 374.359375 C 80.605469 374.519531 81.839844 374.640625 83.078125 374.722656 C 84.320312 374.800781 85.558594 374.84375 86.800781 374.84375 L 288.292969 374.84375 C 289.535156 374.84375 290.773438 374.804688 292.015625 374.722656 C 293.253906 374.644531 294.488281 374.523438 295.722656 374.363281 C 296.953125 374.203125 298.179688 374 299.398438 373.761719 C 300.617188 373.519531 301.824219 373.242188 303.023438 372.921875 C 304.226562 372.601562 305.414062 372.242188 306.589844 371.847656 C 307.769531 371.449219 308.929688 371.015625 310.078125 370.542969 C 311.226562 370.070312 312.359375 369.558594 313.476562 369.011719 C 314.589844 368.464844 315.6875 367.882812 316.765625 367.265625 C 317.84375 366.648438 318.898438 365.996094 319.933594 365.308594 C 320.96875 364.621094 321.980469 363.902344 322.96875 363.148438 C 323.957031 362.394531 324.917969 361.613281 325.855469 360.796875 C 326.792969 359.980469 327.699219 359.136719 328.582031 358.261719 C 329.464844 357.386719 330.316406 356.484375 331.136719 355.550781 C 331.960938 354.621094 332.753906 353.664062 333.511719 352.683594 C 334.273438 351.699219 335 350.695312 335.695312 349.664062 C 336.390625 348.636719 337.050781 347.585938 337.675781 346.511719 C 338.304688 345.4375 338.894531 344.347656 339.449219 343.234375 C 340.003906 342.125 340.523438 340.996094 341.003906 339.851562 C 341.484375 338.707031 341.929688 337.546875 342.335938 336.371094 C 342.738281 335.199219 343.105469 334.011719 343.4375 332.816406 C 343.765625 331.617188 344.054688 330.410156 344.304688 329.191406 C 344.550781 327.976562 344.761719 326.753906 344.933594 325.523438 C 345.101562 324.292969 345.230469 323.058594 345.320312 321.820312 C 345.410156 320.578125 345.460938 319.339844 345.46875 318.097656 C 345.476562 316.855469 345.445312 315.613281 345.371094 314.375 C 345.300781 313.132812 345.1875 311.898438 345.035156 310.664062 C 344.878906 309.433594 344.6875 308.207031 344.453125 306.984375 C 344.222656 305.765625 343.949219 304.554688 343.636719 303.351562 C 343.324219 302.152344 342.972656 300.960938 342.582031 299.78125 C 342.195312 298.601562 341.765625 297.4375 341.300781 296.285156 C 340.835938 295.132812 340.332031 293.996094 339.792969 292.878906 C 339.253906 291.761719 338.675781 290.660156 338.066406 289.578125 C 336.191406 286.265625 334.210938 283.019531 332.121094 279.835938 C 330.035156 276.652344 327.84375 273.542969 325.550781 270.503906 C 323.257812 267.46875 320.863281 264.507812 318.375 261.628906 C 315.886719 258.75 313.304688 255.957031 310.632812 253.246094 C 307.957031 250.535156 305.199219 247.917969 302.351562 245.390625 C 299.503906 242.863281 296.578125 240.433594 293.570312 238.101562 C 290.566406 235.765625 287.484375 233.535156 284.328125 231.402344 C 281.175781 229.273438 277.953125 227.25 274.664062 225.332031 C 271.378906 223.414062 268.03125 221.605469 264.621094 219.910156 C 261.214844 218.214844 257.757812 216.632812 254.246094 215.164062 C 250.730469 213.695312 247.175781 212.34375 243.574219 211.113281 C 239.972656 209.878906 236.335938 208.765625 232.660156 207.773438 C 228.988281 206.777344 225.285156 205.910156 221.550781 205.160156 C 217.820312 204.410156 214.066406 203.785156 210.292969 203.285156 C 206.519531 202.785156 202.734375 202.410156 198.9375 202.160156 C 195.136719 201.910156 191.335938 201.785156 187.53125 201.785156 Z M 187.53125 201.785156 " fill-opacity="1" fill-rule="nonzero"/></svg>