<?xml version="1.0" standalone="no"?>
<!DOCTYPE svg PUBLIC "-//W3C//DTD SVG 20010904//EN"
 "http://www.w3.org/TR/2001/REC-SVG-20010904/DTD/svg10.dtd">
<svg version="1.0" xmlns="http://www.w3.org/2000/svg"
 width="500.000000pt" height="500.000000pt" viewBox="0 0 500.000000 500.000000"
 preserveAspectRatio="xMidYMid meet">

<g transform="translate(0.000000,500.000000) scale(0.100000,-0.100000)"
fill="#000000" stroke="none">
<path d="M28 4523 c7 -3 16 -2 19 1 4 3 -2 6 -13 5 -11 0 -14 -3 -6 -6z"/>
<path d="M2108 4523 c7 -3 16 -2 19 1 4 3 -2 6 -13 5 -11 0 -14 -3 -6 -6z"/>
<path d="M1008 4233 c7 -3 16 -2 19 1 4 3 -2 6 -13 5 -11 0 -14 -3 -6 -6z"/>
<path d="M1048 4233 c6 -2 18 -2 25 0 6 3 1 5 -13 5 -14 0 -19 -2 -12 -5z"/>
<path d="M2269 4096 c-106 -28 -209 -121 -251 -224 -18 -45 -23 -77 -23 -147
0 -78 4 -97 28 -147 60 -122 178 -191 327 -192 75 0 93 4 154 32 80 37 149
102 144 135 -3 24 -70 67 -105 67 -12 0 -30 -11 -40 -24 -49 -62 -155 -86
-222 -52 -135 71 -143 295 -13 383 70 47 177 37 232 -22 29 -31 50 -31 101 -2
47 27 56 48 34 84 -56 94 -231 146 -366 109z"/>
<path d="M2680 4070 c-12 -22 -18 -1 119 -394 50 -143 97 -263 103 -268 23
-14 165 -9 181 6 7 8 25 47 40 88 14 40 65 180 112 312 51 142 83 246 80 257
-6 16 -17 19 -79 19 -47 0 -77 -5 -84 -13 -6 -6 -42 -115 -82 -242 -68 -220
-76 -243 -83 -234 -2 2 -36 108 -76 234 -40 127 -78 236 -83 243 -6 7 -35 12
-74 12 -53 0 -65 -3 -74 -20z"/>
<path d="M970 4036 c-30 -7 -74 -22 -96 -34 -40 -20 -114 -95 -114 -114 0 -5
-5 -6 -12 -2 -6 4 -8 3 -4 -4 7 -11 -13 -62 -24 -62 -4 0 -16 -34 -25 -75 -17
-71 -17 -79 -1 -157 21 -104 37 -158 47 -158 4 0 20 -25 35 -55 16 -30 32 -55
36 -55 4 0 8 -5 8 -11 0 -6 9 -22 20 -36 20 -25 27 -63 13 -63 -5 -1 -21 -12
-38 -26 l-30 -25 37 16 c21 8 46 15 57 15 45 0 41 70 -10 145 -22 33 -49 78
-61 99 -11 22 -29 47 -39 55 -17 14 -49 103 -49 139 0 7 12 18 28 24 15 7 40
23 55 37 26 24 38 27 145 32 99 6 129 12 192 38 l75 30 45 -48 c25 -27 52 -59
61 -71 51 -75 51 99 -1 206 -61 125 -208 192 -350 160z"/>
<path d="M1330 3502 c0 -6 -9 -13 -19 -17 -11 -3 -26 -22 -34 -43 -8 -20 -36
-68 -61 -107 -42 -63 -58 -117 -38 -128 4 -2 21 -7 37 -11 l30 -7 -32 20 c-37
23 -41 42 -14 68 10 10 32 44 48 75 17 32 34 54 38 50 5 -4 5 -1 1 5 -4 8 6
30 25 53 18 22 29 43 26 47 -4 3 -7 1 -7 -5z"/>
<path d="M3230 2689 c-130 -8 -123 -7 -114 -21 5 -8 2 -9 -9 -5 -10 3 -17 2
-17 -3 0 -6 -7 -10 -15 -10 -8 0 -15 -5 -15 -12 0 -6 -3 -8 -7 -5 -11 12 -42
-66 -43 -108 -1 -59 -19 -127 -38 -145 -21 -19 -79 -25 -98 -9 -8 6 -14 8 -15
3 -1 -14 -37 101 -40 127 -3 31 11 118 23 144 9 19 8 19 -6 2 -18 -23 -35
-126 -39 -235 l-2 -83 123 2 c85 2 120 5 112 13 -5 5 -10 51 -10 101 0 105 21
155 80 189 33 20 56 21 375 27 187 3 353 2 369 -3 42 -11 95 -66 107 -110 6
-22 7 -75 3 -129 l-7 -92 39 6 c21 4 72 7 113 7 70 0 94 11 34 15 -54 4 -59 6
-38 15 19 8 19 9 -2 9 -14 1 -23 -5 -23 -14 0 -8 -7 -15 -15 -15 -8 0 -15 5
-15 11 0 6 -9 24 -21 40 -11 16 -22 46 -25 67 -15 134 -56 193 -145 211 -64
12 -468 19 -619 10z"/>
<path d="M1971 1894 c0 -11 3 -14 6 -6 3 7 2 16 -1 19 -3 4 -6 -2 -5 -13z"/>
<path d="M1972 1830 c0 -19 2 -27 5 -17 2 9 2 25 0 35 -3 9 -5 1 -5 -18z"/>
<path d="M1968 1785 c-7 -8 -1 -1342 7 -1452 11 -159 103 -252 280 -284 98
-18 2215 -20 2408 -2 134 12 51 17 -231 14 -158 -2 -468 -4 -689 -5 -222 0
-403 -5 -403 -10 0 -4 -24 -5 -52 -2 -29 3 -260 9 -513 12 -253 4 -471 7 -485
9 -14 1 -41 3 -60 4 -27 1 -32 4 -20 12 11 8 7 9 -18 4 -24 -5 -32 -3 -30 7 2
8 -4 12 -16 10 -12 -2 -16 1 -11 9 5 7 3 10 -5 7 -8 -2 -22 4 -32 14 -10 10
-25 18 -34 18 -14 0 -14 3 -4 15 10 12 10 15 -4 15 -9 0 -15 3 -14 8 1 4 -6
20 -17 36 -19 28 -24 46 -28 96 -1 14 -6 31 -11 38 -4 7 -4 18 2 25 7 9 8 144
2 177 -7 34 3 887 10 895 6 7 7 15 3 18 -3 4 -3 7 2 7 4 0 25 -18 45 -39 36
-38 97 -77 113 -73 4 1 7 -2 7 -8 0 -5 7 -10 16 -10 9 0 28 -6 42 -14 34 -17
145 -53 192 -61 19 -3 78 -15 130 -26 242 -50 328 -65 405 -74 45 -5 108 -22
143 -38 25 -12 62 -66 62 -91 0 -26 40 -97 50 -91 6 4 7 -1 3 -11 -5 -13 -3
-16 10 -11 9 3 17 2 17 -3 0 -21 78 -31 235 -31 187 1 209 4 245 39 20 20 21
23 5 16 -11 -5 -115 -10 -232 -12 l-212 -3 -31 28 c-40 36 -48 77 -51 248 -2
108 -4 118 -8 60 -6 -68 -7 -70 -34 -73 -15 -2 -60 2 -100 8 -40 7 -85 14
-102 16 -55 7 -219 35 -265 44 -319 66 -422 94 -508 137 -132 66 -187 147
-200 297 -4 48 -10 85 -14 81z"/>
<path d="M4982 1630 c0 -14 2 -19 5 -12 2 6 2 18 0 25 -3 6 -5 1 -5 -13z"/>
<path d="M4884 1469 c-52 -57 -268 -138 -464 -174 -114 -21 -479 -81 -560 -93
-43 -7 -69 -6 -77 0 -10 8 -13 -9 -11 -83 0 -52 3 -78 5 -59 8 77 17 83 153
106 47 8 111 19 143 24 31 6 83 14 115 19 31 5 88 16 125 25 38 8 72 15 75 14
4 -1 14 1 22 4 50 19 159 48 178 48 29 0 189 69 250 108 55 36 99 82 78 82 -7
0 -21 -9 -32 -21z"/>
<path d="M4835 110 c-19 -8 -19 -9 2 -9 12 -1 25 4 28 9 7 12 -2 12 -30 0z"/>
<path d="M4798 83 c6 -2 18 -2 25 0 6 3 1 5 -13 5 -14 0 -19 -2 -12 -5z"/>
<path d="M4750 70 c0 -5 5 -10 11 -10 5 0 7 5 4 10 -3 6 -8 10 -11 10 -2 0 -4
-4 -4 -10z"/>
</g>
</svg>
