<svg xmlns="http://www.w3.org/2000/svg" xmlns:xlink="http://www.w3.org/1999/xlink" width="500" zoomAndPan="magnify" viewBox="0 0 375 374.999991" height="500" preserveAspectRatio="xMidYMid meet" version="1.0"><defs><g/><clipPath id="b297f7385d"><path d="M 0 64.453125 L 375 64.453125 L 375 310.453125 L 0 310.453125 Z M 0 64.453125 " clip-rule="nonzero"/></clipPath></defs><path fill="#ffffff" d="M 80.402344 193.101562 L 80.402344 255.886719 C 80.414062 274.429688 124.644531 295.09375 188.101562 295.09375 C 251.558594 295.09375 295.789062 274.429688 295.800781 255.882812 L 295.800781 183.171875 L 176.503906 236.261719 L 80.402344 193.101562 " fill-opacity="1" fill-rule="nonzero"/><g clip-path="url(#b297f7385d)"><path fill="#ffffff" d="M 215.078125 150.332031 C 212.4375 150.332031 210.304688 148.199219 210.304688 145.558594 C 210.304688 142.921875 212.4375 140.789062 215.078125 140.789062 L 336.25 140.789062 C 335.675781 141.691406 335.332031 142.753906 335.332031 143.902344 L 335.332031 150.332031 Z M 374.949219 291.296875 C 369.808594 248.433594 353.074219 228.359375 346.96875 222.332031 L 346.96875 143.902344 C 346.96875 142.753906 346.625 141.691406 346.050781 140.789062 L 346.054688 140.789062 L 346.050781 140.785156 C 345.015625 139.164062 343.214844 138.082031 341.148438 138.082031 C 340.839844 138.082031 340.539062 138.128906 340.238281 138.175781 L 176.339844 64.5625 L 0.0078125 143.039062 L 176.527344 222.320312 L 335.332031 151.648438 L 335.332031 222.332031 C 329.226562 228.359375 312.492188 248.433594 307.347656 291.296875 C 307.328125 291.460938 307.316406 291.628906 307.3125 291.792969 C 307.28125 292.671875 307.355469 297.285156 311.714844 301.789062 C 317.261719 307.53125 327.167969 310.4375 341.148438 310.4375 C 355.132812 310.4375 365.035156 307.53125 370.585938 301.792969 C 374.945312 297.285156 375.019531 292.671875 374.988281 291.792969 C 374.984375 291.628906 374.96875 291.460938 374.949219 291.296875 " fill-opacity="1" fill-rule="nonzero"/></g><g fill="#ffffff" fill-opacity="1"><g transform="translate(180.855461, 195.374987)"><g><path d="M 9.34375 0 L 8.71875 -1.640625 L 8.625 -1.640625 C 8.070312 -0.941406 7.503906 -0.457031 6.921875 -0.1875 C 6.335938 0.0820312 5.578125 0.21875 4.640625 0.21875 C 3.484375 0.21875 2.570312 -0.109375 1.90625 -0.765625 C 1.25 -1.429688 0.921875 -2.375 0.921875 -3.59375 C 0.921875 -4.863281 1.363281 -5.800781 2.25 -6.40625 C 3.144531 -7.007812 4.492188 -7.34375 6.296875 -7.40625 L 8.375 -7.484375 L 8.375 -8 C 8.375 -9.21875 7.753906 -9.828125 6.515625 -9.828125 C 5.554688 -9.828125 4.425781 -9.535156 3.125 -8.953125 L 2.046875 -11.171875 C 3.421875 -11.890625 4.953125 -12.25 6.640625 -12.25 C 8.253906 -12.25 9.488281 -11.898438 10.34375 -11.203125 C 11.207031 -10.503906 11.640625 -9.4375 11.640625 -8 L 11.640625 0 Z M 8.375 -5.5625 L 7.109375 -5.515625 C 6.160156 -5.492188 5.453125 -5.320312 4.984375 -5 C 4.515625 -4.6875 4.28125 -4.207031 4.28125 -3.5625 C 4.28125 -2.644531 4.8125 -2.1875 5.875 -2.1875 C 6.632812 -2.1875 7.238281 -2.398438 7.6875 -2.828125 C 8.144531 -3.265625 8.375 -3.847656 8.375 -4.578125 Z M 8.375 -5.5625 "/></g></g></g></svg>