<svg xmlns="http://www.w3.org/2000/svg" xmlns:xlink="http://www.w3.org/1999/xlink" width="500" zoomAndPan="magnify" viewBox="0 0 375 374.999991" height="500" preserveAspectRatio="xMidYMid meet" version="1.0"><defs><g/><clipPath id="d001ceaa7f"><path d="M 0 173 L 375 173 L 375 357.328125 L 0 357.328125 Z M 0 173 " clip-rule="nonzero"/></clipPath><clipPath id="3dd5c5c8d6"><path d="M 0 17.578125 L 375 17.578125 L 375 172 L 0 172 Z M 0 17.578125 " clip-rule="nonzero"/></clipPath></defs><g clip-path="url(#d001ceaa7f)"><path fill="#ffffff" d="M 374.894531 320.359375 L 374.894531 173.210938 C 372.898438 175.160156 370.738281 177.027344 368.53125 178.722656 C 366.496094 180.289062 364.375 181.734375 362.171875 183.089844 C 354.917969 187.5 346.863281 190.511719 338.425781 191.824219 C 327.058594 193.5625 315.3125 192.886719 303.820312 192.886719 L 222.570312 192.886719 C 222.273438 192.886719 221.976562 192.886719 221.679688 192.84375 L 221.679688 198.101562 C 221.679688 198.738281 221.722656 199.332031 221.679688 199.96875 C 221.511719 203.402344 218.964844 205.945312 215.53125 206.117188 C 209.464844 206.414062 203.316406 206.117188 197.210938 206.117188 L 167.613281 206.117188 C 165.023438 206.117188 162.4375 206.160156 159.851562 206.117188 C 155.992188 206.03125 153.320312 203.445312 153.277344 199.542969 C 153.234375 197.339844 153.234375 195.089844 153.234375 192.886719 C 152.980469 192.929688 152.683594 192.929688 152.429688 192.929688 C 152.261719 192.929688 152.046875 192.929688 151.878906 192.929688 C 140.34375 193.097656 128.765625 192.929688 117.234375 192.929688 L 65.710938 192.929688 C 52.988281 192.929688 39.96875 193.734375 27.671875 189.789062 C 22.539062 188.136719 17.535156 185.886719 12.828125 183.132812 C 10.625 181.816406 8.503906 180.417969 6.46875 178.890625 C 4.21875 177.195312 2.101562 175.371094 0.105469 173.421875 L 0.105469 333.800781 C 0.105469 334.988281 0.0625 336.175781 0.148438 337.363281 C 0.996094 348.558594 10.113281 357.210938 21.351562 357.378906 C 24.109375 357.421875 26.824219 357.378906 29.578125 357.378906 L 342.15625 357.378906 C 345.800781 357.378906 349.492188 357.378906 353.140625 357.378906 C 365.519531 357.335938 374.851562 347.582031 374.894531 335.328125 C 374.894531 330.238281 374.894531 325.320312 374.894531 320.359375 Z M 374.894531 320.359375 " fill-opacity="1" fill-rule="nonzero"/></g><g clip-path="url(#3dd5c5c8d6)"><path fill="#ffffff" d="M 374.808594 107.605469 L 374.808594 93.019531 C 374.003906 81.910156 364.929688 73.171875 353.648438 73.003906 C 352.882812 73.003906 352.164062 73.003906 351.398438 73.003906 L 260.480469 73.003906 L 260.480469 41.324219 C 260.480469 34.878906 258.65625 28.773438 253.992188 24.109375 C 249.625 19.699219 243.730469 17.664062 237.582031 17.621094 C 232.027344 17.621094 226.515625 17.621094 220.957031 17.621094 L 139.75 17.621094 C 138.691406 17.621094 137.628906 17.578125 136.613281 17.621094 C 124.441406 17.875 114.859375 27.5 114.5625 39.671875 C 114.308594 50.738281 114.433594 61.894531 114.519531 73.003906 L 25.890625 73.003906 C 24.574219 73.003906 23.304688 73.003906 21.988281 73.003906 C 16.304688 73.003906 11.003906 74.953125 6.808594 78.855469 C 2.734375 82.671875 0.574219 87.886719 0.234375 93.359375 L 0.234375 113.925781 C 0.234375 116.894531 0.234375 119.820312 0.234375 122.789062 C 0.234375 124.058594 0.234375 125.289062 0.320312 126.5625 C 0.359375 127.453125 0.445312 128.300781 0.53125 129.191406 C 0.53125 129.320312 0.574219 129.445312 0.574219 129.574219 C 0.785156 130.804688 0.953125 132.03125 1.210938 133.21875 C 1.84375 136.1875 2.777344 139.113281 3.839844 141.957031 C 3.839844 142 3.839844 142 3.882812 142.039062 C 3.882812 142.082031 3.882812 142.082031 3.921875 142.125 C 3.964844 142.210938 3.964844 142.253906 4.007812 142.335938 C 4.261719 142.929688 4.558594 143.523438 4.855469 144.117188 C 5.40625 145.222656 5.957031 146.28125 6.550781 147.339844 C 6.636719 147.511719 6.722656 147.679688 6.847656 147.808594 C 7.65625 149.164062 8.503906 150.523438 9.4375 151.792969 C 9.816406 152.34375 10.242188 152.8125 10.582031 153.363281 C 10.539062 153.277344 10.496094 153.195312 10.453125 153.109375 C 10.539062 153.234375 10.582031 153.320312 10.664062 153.40625 C 11.386719 154.296875 12.148438 155.1875 12.957031 156.035156 C 14.1875 157.347656 15.5 158.621094 16.855469 159.851562 C 17.410156 160.359375 17.960938 160.828125 18.554688 161.292969 C 18.636719 161.378906 18.765625 161.460938 18.894531 161.546875 C 19.613281 162.015625 19.910156 162.183594 19.953125 162.226562 C 19.910156 162.226562 19.699219 162.054688 19.402344 161.886719 C 20.292969 162.480469 21.140625 163.160156 22.03125 163.753906 C 24.40625 165.277344 26.863281 166.636719 29.410156 167.824219 C 31.867188 168.585938 30.554688 168.289062 29.75 167.992188 C 29.832031 168.035156 29.875 168.035156 29.960938 168.078125 C 30.683594 168.332031 31.359375 168.628906 32.082031 168.839844 C 33.4375 169.308594 34.796875 169.730469 36.152344 170.113281 C 37.636719 170.496094 39.121094 170.835938 40.648438 171.132812 C 41.15625 171.214844 41.664062 171.300781 42.171875 171.386719 C 42.46875 171.429688 42.765625 171.429688 43.023438 171.46875 C 46.796875 171.808594 50.613281 171.726562 54.386719 171.726562 L 152.558594 171.726562 C 152.855469 171.726562 153.152344 171.726562 153.449219 171.765625 L 153.449219 161.546875 C 153.449219 158.578125 153.023438 155.398438 155.441406 153.195312 C 157.519531 151.285156 160.234375 151.582031 162.820312 151.582031 L 214.132812 151.582031 C 214.640625 151.582031 215.191406 151.582031 215.699219 151.582031 C 219.007812 151.75 221.339844 154.042969 221.765625 157.222656 C 221.804688 157.390625 221.804688 157.5625 221.804688 157.730469 C 221.804688 157.816406 221.804688 157.902344 221.804688 157.984375 L 221.804688 171.808594 C 222.101562 171.765625 222.398438 171.765625 222.695312 171.765625 L 223.25 171.765625 C 234.484375 171.554688 245.722656 171.765625 256.917969 171.765625 L 326.804688 171.765625 C 328.628906 171.765625 330.410156 171.683594 332.234375 171.511719 C 332.570312 171.46875 332.953125 171.429688 333.292969 171.386719 C 333.714844 171.300781 334.183594 171.257812 334.605469 171.171875 C 336.089844 170.875 337.617188 170.578125 339.101562 170.15625 C 340.585938 169.773438 342.027344 169.308594 343.46875 168.800781 C 344.148438 168.542969 344.785156 168.289062 345.464844 168.035156 C 348.09375 166.804688 350.59375 165.492188 353.011719 163.921875 C 353.816406 163.414062 354.582031 162.90625 355.34375 162.351562 C 355.554688 162.183594 356.234375 161.675781 356.53125 161.460938 C 356.53125 161.460938 356.574219 161.421875 356.574219 161.421875 C 356.617188 161.378906 356.699219 161.335938 356.699219 161.292969 C 357.292969 160.828125 357.847656 160.316406 358.398438 159.851562 C 359.753906 158.664062 361.027344 157.390625 362.296875 156.035156 C 363.105469 155.1875 363.867188 154.339844 364.589844 153.40625 C 364.628906 153.320312 364.714844 153.277344 364.757812 153.195312 C 365.097656 152.640625 365.5625 152.089844 365.945312 151.582031 C 366.75 150.4375 367.515625 149.25 368.191406 148.0625 C 368.320312 147.808594 368.488281 147.554688 368.617188 147.339844 C 369.253906 146.195312 369.890625 145.050781 370.441406 143.863281 C 370.695312 143.3125 370.992188 142.71875 371.246094 142.167969 C 372.304688 139.367188 373.238281 136.527344 373.875 133.558594 C 374.085938 132.625 374.257812 131.652344 374.425781 130.71875 C 374.425781 130.71875 374.425781 130.675781 374.425781 130.675781 C 374.425781 130.675781 374.425781 130.632812 374.425781 130.632812 C 374.425781 130.589844 374.425781 130.546875 374.425781 130.507812 C 374.425781 130.464844 374.425781 130.421875 374.46875 130.378906 C 374.511719 129.953125 374.597656 129.402344 374.640625 129.0625 C 374.722656 128.300781 374.765625 127.496094 374.808594 126.730469 C 374.851562 125.503906 374.894531 124.273438 374.9375 123.042969 L 374.9375 114.644531 C 374.851562 112.144531 374.808594 109.898438 374.808594 107.605469 Z M 239.40625 39.839844 C 239.40625 39.882812 239.40625 39.925781 239.449219 39.925781 C 239.449219 39.925781 239.449219 39.96875 239.449219 39.96875 C 239.488281 40.179688 239.53125 40.308594 239.449219 40.097656 C 239.40625 40.136719 239.320312 40.054688 239.277344 39.96875 C 239.488281 50.996094 239.40625 62.019531 239.320312 73.046875 L 135.722656 73.046875 L 135.722656 42.214844 C 135.722656 41.496094 135.722656 40.730469 135.722656 40.011719 C 135.59375 40.179688 135.511719 40.222656 135.46875 40.179688 C 135.382812 40.308594 135.382812 40.054688 135.425781 39.757812 C 135.214844 40.011719 135.085938 40.054688 135.425781 39.671875 C 135.425781 39.503906 135.46875 39.375 135.511719 39.207031 C 135.511719 39.207031 135.511719 39.207031 135.46875 39.207031 C 135.46875 39.207031 135.46875 39.207031 135.511719 39.207031 C 135.550781 39.121094 135.550781 38.992188 135.59375 38.910156 C 135.296875 38.910156 135.382812 38.824219 135.636719 38.78125 C 135.679688 38.570312 135.765625 38.484375 135.765625 38.738281 C 135.847656 38.738281 135.933594 38.695312 136.0625 38.695312 C 136.0625 38.652344 136.0625 38.652344 136.0625 38.613281 C 136.0625 38.613281 136.0625 38.652344 136.0625 38.652344 C 136.230469 38.613281 136.359375 38.613281 136.527344 38.570312 C 136.699219 38.398438 136.78125 38.355469 136.824219 38.316406 C 136.78125 38.355469 136.699219 38.441406 136.570312 38.570312 C 136.910156 38.527344 137.164062 38.527344 137.035156 38.613281 C 137.078125 38.652344 137.035156 38.738281 136.867188 38.867188 C 137.207031 38.867188 137.546875 38.867188 137.882812 38.867188 L 234.613281 38.867188 C 235.886719 38.867188 237.117188 38.824219 238.386719 38.867188 C 238.300781 38.824219 238.261719 38.824219 238.21875 38.78125 C 237.921875 38.613281 238.007812 38.570312 238.21875 38.527344 C 238.089844 38.441406 238.132812 38.441406 238.261719 38.527344 C 238.300781 38.527344 238.386719 38.527344 238.429688 38.527344 C 238.261719 38.398438 238.175781 38.316406 238.132812 38.273438 C 238.132812 38.273438 238.261719 38.355469 238.472656 38.527344 C 238.640625 38.527344 238.8125 38.570312 238.980469 38.570312 C 239.066406 38.570312 239.109375 38.613281 239.191406 38.613281 C 239.191406 38.527344 239.191406 38.484375 239.234375 38.484375 C 239.234375 38.484375 239.277344 38.527344 239.277344 38.613281 C 239.660156 38.695312 239.828125 38.78125 239.277344 38.824219 C 239.277344 38.910156 239.277344 38.949219 239.277344 39.035156 C 239.40625 39.078125 239.488281 39.121094 239.53125 39.121094 C 239.488281 39.121094 239.363281 39.121094 239.277344 39.078125 L 239.277344 39.121094 C 239.320312 39.164062 239.40625 39.207031 239.488281 39.289062 C 239.449219 39.289062 239.40625 39.246094 239.320312 39.207031 C 239.320312 39.289062 239.363281 39.332031 239.363281 39.417969 C 239.488281 39.585938 239.660156 39.757812 239.785156 39.839844 C 239.660156 39.757812 239.53125 39.628906 239.40625 39.542969 C 239.40625 39.714844 239.40625 39.757812 239.40625 39.839844 Z M 239.40625 39.839844 " fill-opacity="1" fill-rule="nonzero"/></g><g fill="#ffffff" fill-opacity="1"><g transform="translate(180.855461, 233.321425)"><g><path d="M 9.34375 0 L 8.71875 -1.640625 L 8.625 -1.640625 C 8.070312 -0.941406 7.503906 -0.457031 6.921875 -0.1875 C 6.335938 0.0820312 5.578125 0.21875 4.640625 0.21875 C 3.484375 0.21875 2.570312 -0.109375 1.90625 -0.765625 C 1.25 -1.429688 0.921875 -2.375 0.921875 -3.59375 C 0.921875 -4.863281 1.363281 -5.800781 2.25 -6.40625 C 3.144531 -7.007812 4.492188 -7.34375 6.296875 -7.40625 L 8.375 -7.484375 L 8.375 -8 C 8.375 -9.21875 7.753906 -9.828125 6.515625 -9.828125 C 5.554688 -9.828125 4.425781 -9.535156 3.125 -8.953125 L 2.046875 -11.171875 C 3.421875 -11.890625 4.953125 -12.25 6.640625 -12.25 C 8.253906 -12.25 9.488281 -11.898438 10.34375 -11.203125 C 11.207031 -10.503906 11.640625 -9.4375 11.640625 -8 L 11.640625 0 Z M 8.375 -5.5625 L 7.109375 -5.515625 C 6.160156 -5.492188 5.453125 -5.320312 4.984375 -5 C 4.515625 -4.6875 4.28125 -4.207031 4.28125 -3.5625 C 4.28125 -2.644531 4.8125 -2.1875 5.875 -2.1875 C 6.632812 -2.1875 7.238281 -2.398438 7.6875 -2.828125 C 8.144531 -3.265625 8.375 -3.847656 8.375 -4.578125 Z M 8.375 -5.5625 "/></g></g></g></svg>